<svg xmlns="http://www.w3.org/2000/svg" width="20" height="20" fill="none"><path fill="#fff" d="M14.18 11.055q.39-.43 0-.86-.43-.39-.86 0l-2.695 2.657V5.625Q10.586 5.04 10 5q-.585.039-.625.625v7.227L6.68 10.195q-.43-.39-.86 0-.39.43 0 .86l3.75 3.75Q9.766 15 10 15q.235 0 .43-.195zM20 10q-.04-2.812-1.367-5.04a9.9 9.9 0 0 0-3.594-3.593Q12.813.04 10 0 7.188.04 4.96 1.367a9.9 9.9 0 0 0-3.593 3.594Q.04 7.187 0 10q.04 2.813 1.367 5.04a9.9 9.9 0 0 0 3.594 3.593Q7.187 19.96 10 20q2.813-.04 5.04-1.367a9.9 9.9 0 0 0 3.593-3.594Q19.96 12.813 20 10M1.25 10q.04-2.422 1.21-4.414A9 9 0 0 1 5.587 2.46Q7.579 1.289 10 1.25q2.422.04 4.414 1.21a9 9 0 0 1 3.125 3.126Q18.711 7.579 18.75 10q-.04 2.422-1.21 4.414a9 9 0 0 1-3.126 3.125Q12.422 18.711 10 18.75q-2.422-.04-4.414-1.21a9 9 0 0 1-3.125-3.126Q1.289 12.422 1.25 10"/></svg>