<svg xmlns="http://www.w3.org/2000/svg" width="27" height="30" fill="none"><path fill="#000" d="M13.49 7.459c-4.235 0-7.681 3.319-7.681 7.398s3.446 7.397 7.682 7.397 7.682-3.318 7.682-7.397-3.446-7.398-7.682-7.398m0 13.054c-3.238 0-5.873-2.537-5.873-5.656 0-3.12 2.635-5.657 5.874-5.657s5.874 2.538 5.874 5.657-2.635 5.656-5.874 5.656"/><path fill="#000" d="m13.736 1.868.396-.382a.85.85 0 0 0 0-1.231.93.93 0 0 0-1.278 0L10.917 2.12a.86.86 0 0 0-.265.615c0 .231.096.453.265.616l1.937 1.865c.176.17.408.255.639.255a.92.92 0 0 0 .64-.255.85.85 0 0 0 0-1.231l-.391-.376c6.328.128 11.435 5.124 11.435 11.248 0 .48.405.87.904.87.5 0 .904-.39.904-.87 0-7.086-5.921-12.864-13.25-12.99M13.977 13.988h-.949a.56.56 0 0 1-.568-.55c0-.28.235-.507.525-.507h1.476c.5 0 .904-.39.904-.87 0-.481-.405-.87-.904-.87h-.064v-.063c0-.48-.405-.87-.904-.87-.5 0-.904.39-.904.87v.095c-1.098.182-1.937 1.106-1.937 2.216 0 1.262 1.066 2.29 2.376 2.29h.95a.54.54 0 0 1 .548.528.54.54 0 0 1-.549.528h-1.452c-.5 0-.904.39-.904.87 0 .481.404.87.904.87h.064v.063c0 .48.405.87.904.87.5 0 .904-.39.904-.87v-.099c1.1-.191 1.937-1.12 1.937-2.232 0-1.252-1.057-2.27-2.357-2.27M14.131 24.498a.93.93 0 0 0-1.278 0 .85.85 0 0 0 0 1.232l.39.375c-6.328-.128-11.435-5.124-11.435-11.248 0-.48-.405-.87-.904-.87-.5 0-.904.39-.904.87 0 7.086 5.921 12.864 13.25 12.99l-.397.381a.85.85 0 0 0 0 1.231.92.92 0 0 0 .639.255.92.92 0 0 0 .64-.255l1.936-1.865a.85.85 0 0 0 .265-.615.85.85 0 0 0-.265-.616z"/></svg>