<svg width="30" height="30" viewBox="0 0 30 30" fill="none" xmlns="http://www.w3.org/2000/svg">
<path d="M29.0625 24.375C29.3359 24.375 29.5605 24.4629 29.7363 24.6387C29.9121 24.8145 30 25.0391 30 25.3125V29.0625C30 29.3359 29.9121 29.5605 29.7363 29.7363C29.5605 29.9121 29.3359 30 29.0625 30H0.9375C0.664063 30 0.439453 29.9121 0.263672 29.7363C0.0878906 29.5605 0 29.3359 0 29.0625V25.3125C0 25.0391 0.0878906 24.8145 0.263672 24.6387C0.439453 24.4629 0.664063 24.375 0.9375 24.375H1.875V1.875C1.875 1.36719 2.06055 0.927734 2.43164 0.556641C2.80273 0.185547 3.24219 0 3.75 0H26.25C26.7578 0 27.1973 0.185547 27.5684 0.556641C27.9395 0.927734 28.125 1.36719 28.125 1.875V24.375H29.0625ZM15.9375 1.875V12.1875H26.25V1.875H15.9375ZM15.9375 14.0625V24.375H26.25V14.0625H15.9375ZM3.75 1.875V12.1875H14.0625V1.875H3.75ZM3.75 14.0625V24.375H14.0625V14.0625H3.75ZM28.125 28.125V26.25H1.875V28.125H28.125Z" fill="#003241"/>
</svg>
