<svg width="38" height="30" viewBox="0 0 38 30" fill="none" xmlns="http://www.w3.org/2000/svg">
<path d="M24.7559 16.3184C24.7559 16.3184 24.6631 16.4111 24.4775 16.5967C24.292 16.7822 23.9453 16.875 23.4375 16.875C22.9297 16.875 22.4902 16.6895 22.1191 16.3184C21.748 15.9473 21.5625 15.5078 21.5625 15C21.5625 14.4922 21.748 14.0527 22.1191 13.6816C22.4902 13.3105 22.9297 13.125 23.4375 13.125C23.9453 13.125 24.3848 13.3105 24.7559 13.6816C25.127 14.0527 25.3125 14.4922 25.3125 15C25.3125 15.5078 25.127 15.9473 24.7559 16.3184ZM37.0312 28.125C37.3438 28.125 37.5 28.2812 37.5 28.5938V29.5312C37.5 29.8438 37.3438 30 37.0312 30H0.46875C0.15625 30 0 29.8438 0 29.5312V28.5938C0 28.2812 0.15625 28.125 0.46875 28.125H7.5V1.875C7.5 1.36719 7.68555 0.927734 8.05664 0.556641C8.42773 0.185547 8.86719 0 9.375 0H28.125C28.6328 0 29.0723 0.185547 29.4434 0.556641C29.8145 0.927734 30 1.36719 30 1.875V28.125H37.0312ZM28.125 28.125V1.875H9.375V28.125H28.125Z" fill="#003241"/>
</svg>
