<svg width="30" height="25" viewBox="0 0 30 25" fill="none" xmlns="http://www.w3.org/2000/svg">
<path d="M18.9127 4.61482L13.045 0.792112C12.8986 0.696557 12.7265 0.648068 12.5517 0.653201C12.377 0.658334 12.208 0.716855 12.0675 0.820839L0.973184 9.02434C0.865674 9.10373 0.778234 9.20716 0.71786 9.32639C0.657487 9.44562 0.625849 9.57733 0.625488 9.71097V23.2691C0.625488 23.4964 0.715796 23.7144 0.876526 23.8751C1.03726 24.0358 1.25525 24.1261 1.48256 24.1261H23.2417C23.469 24.1261 23.687 24.0358 23.8477 23.8751C24.0084 23.7144 24.0987 23.4964 24.0987 23.2691V13.9476" stroke="#003241" stroke-width="1.24844" stroke-linecap="round" stroke-linejoin="round"/>
<path d="M9.34214 24.1286V15.5924C9.33764 15.4611 9.35908 15.3303 9.40523 15.2073C9.45138 15.0843 9.52134 14.9716 9.6111 14.8757C9.70086 14.7798 9.80864 14.7026 9.9283 14.6484C10.048 14.5942 10.1771 14.5641 10.3084 14.5599H14.5531C14.6844 14.5641 14.8136 14.5942 14.9333 14.6484C15.0529 14.7026 15.1607 14.7798 15.2505 14.8757C15.3402 14.9716 15.4102 15.0843 15.4563 15.2073C15.5025 15.3303 15.5239 15.4611 15.5194 15.5924V24.1286" stroke="#003241" stroke-width="1.24844" stroke-linecap="round" stroke-linejoin="round"/>
<path d="M28.0881 8.6935C28.088 9.77485 27.7672 10.8319 27.1663 11.7309C26.5655 12.63 25.7115 13.3307 24.7124 13.7444C23.7134 14.1582 22.614 14.2664 21.5535 14.0553C20.4929 13.8443 19.5187 13.3235 18.7542 12.5588C17.9896 11.7941 17.4689 10.8199 17.258 9.75933C17.047 8.69875 17.1554 7.59942 17.5692 6.60039C17.9831 5.60136 18.6838 4.7475 19.583 4.14675C20.4821 3.54599 21.5392 3.22531 22.6205 3.22531" stroke="#003241" stroke-width="1.24844" stroke-linecap="round" stroke-linejoin="round"/>
<path d="M21.2698 6.64107L23.3921 9.65794L29.0944 3.86015" stroke="#003241" stroke-width="1.24844" stroke-linecap="round" stroke-linejoin="round"/>
</svg>
