<svg width="30" height="30" viewBox="0 0 30 30" fill="none" xmlns="http://www.w3.org/2000/svg">
<path d="M0 4.6875C0 3.90625 0.273438 3.24219 0.820312 2.69531C1.36719 2.14844 2.03125 1.875 2.8125 1.875H27.1875C27.9688 1.875 28.6328 2.14844 29.1797 2.69531C29.7266 3.24219 30 3.90625 30 4.6875V25.3125C30 26.0938 29.7266 26.7578 29.1797 27.3047C28.6328 27.8516 27.9688 28.125 27.1875 28.125H2.8125C2.03125 28.125 1.36719 27.8516 0.820312 27.3047C0.273438 26.7578 0 26.0938 0 25.3125V4.6875ZM28.125 4.6875C28.125 4.41406 28.0371 4.18945 27.8613 4.01367C27.6855 3.83789 27.4609 3.75 27.1875 3.75H11.25V10.0195H28.125V4.6875ZM28.125 18.1055V11.8945H11.25V18.1055H28.125ZM1.875 11.8945V18.1055H9.375V11.8945H1.875ZM9.375 3.75H2.8125C2.53906 3.75 2.31445 3.83789 2.13867 4.01367C1.96289 4.18945 1.875 4.41406 1.875 4.6875V10.0195H9.375V3.75ZM1.875 25.3125C1.875 25.5859 1.96289 25.8105 2.13867 25.9863C2.31445 26.1621 2.53906 26.25 2.8125 26.25H9.375V19.9805H1.875V25.3125ZM11.25 26.25H27.1875C27.4609 26.25 27.6855 26.1621 27.8613 25.9863C28.0371 25.8105 28.125 25.5859 28.125 25.3125V19.9805H11.25V26.25Z" fill="#003241"/>
</svg>
