<svg width="34" height="30" viewBox="0 0 34 30" fill="none" xmlns="http://www.w3.org/2000/svg">
<g clip-path="url(#clip0_15_417)">
<path d="M33.5742 12.8906C33.6914 12.9688 33.75 13.0664 33.75 13.1836C33.75 13.3008 33.7305 13.3984 33.6914 13.4766L32.8125 14.4727C32.7344 14.5898 32.6367 14.6484 32.5195 14.6484C32.4414 14.6484 32.3633 14.6094 32.2852 14.5312L30 12.7148V29.0625C30 29.3359 29.9121 29.5605 29.7363 29.7363C29.5605 29.9121 29.3359 30 29.0625 30H4.6875C4.41406 30 4.18945 29.9121 4.01367 29.7363C3.83789 29.5605 3.75 29.3359 3.75 29.0625V12.7148L1.46484 14.5312C1.38672 14.5703 1.30859 14.5898 1.23047 14.5898C1.11328 14.5898 1.01562 14.5508 0.9375 14.4727L0.117188 13.418C0.0390625 13.3789 0 13.3008 0 13.1836C0 13.0664 0.0585938 12.9688 0.175781 12.8906L15.5273 0.46875C15.918 0.15625 16.3672 0 16.875 0C17.3828 0 17.832 0.15625 18.2227 0.46875L28.125 8.49609V4.21875C28.125 3.90625 28.2812 3.75 28.5938 3.75H29.5312C29.8438 3.75 30 3.90625 30 4.21875V9.96094L33.5742 12.8906ZM19.6875 28.125V18.75H14.0625V28.125H19.6875ZM28.125 28.125V11.1914L17.1094 2.34375C17.0312 2.26562 16.9531 2.22656 16.875 2.22656C16.7969 2.22656 16.7188 2.26562 16.6406 2.34375L5.625 11.1914V28.125H12.1875V17.8125C12.1875 17.5391 12.2754 17.3145 12.4512 17.1387C12.627 16.9629 12.8516 16.875 13.125 16.875H20.625C20.8984 16.875 21.123 16.9629 21.2988 17.1387C21.4746 17.3145 21.5625 17.5391 21.5625 17.8125V28.125H28.125Z" fill="#003241"/>
</g>
<defs>
<clipPath id="clip0_15_417">
<rect width="33.75" height="30" fill="white" transform="matrix(1 0 0 -1 0 30)"/>
</clipPath>
</defs>
</svg>
