<svg xmlns="http://www.w3.org/2000/svg" width="20" height="21" fill="none"><path fill="#4B4B4B" d="M11.055 6.44q-.43-.39-.86 0-.39.43 0 .86l2.657 2.695H5.625q-.585.04-.625.625.039.586.625.625h7.227l-2.657 2.695q-.39.43 0 .86.43.39.86 0l3.75-3.75a.6.6 0 0 0 .195-.43q0-.235-.195-.43zM10 .62Q7.188.66 4.96 1.987a9.9 9.9 0 0 0-3.593 3.594Q.04 7.807 0 10.621q.04 2.811 1.367 5.038a9.9 9.9 0 0 0 3.594 3.594Q7.187 20.58 10 20.62q2.813-.04 5.04-1.367a9.9 9.9 0 0 0 3.593-3.594Q19.96 13.433 20 10.62q-.04-2.813-1.367-5.039a9.9 9.9 0 0 0-3.594-3.594Q12.813.66 10 .62m0 18.75q-2.422-.04-4.414-1.21a9 9 0 0 1-3.125-3.126Q1.289 13.042 1.25 10.62q.04-2.422 1.21-4.414a9 9 0 0 1 3.126-3.125Q7.579 1.909 10 1.871q2.422.038 4.414 1.21a9 9 0 0 1 3.125 3.125Q18.711 8.2 18.75 10.62q-.04 2.422-1.21 4.414a9 9 0 0 1-3.126 3.125Q12.422 19.331 10 19.37"/></svg>